%TF.GenerationSoftware,KiCad,Pcbnew,(6.0.7)*%
%TF.CreationDate,2022-07-30T13:06:33+08:00*%
%TF.ProjectId,remote-switch,72656d6f-7465-42d7-9377-697463682e6b,rev?*%
%TF.SameCoordinates,Original*%
%TF.FileFunction,Legend,Top*%
%TF.FilePolarity,Positive*%
%FSLAX46Y46*%
G04 Gerber Fmt 4.6, Leading zero omitted, Abs format (unit mm)*
G04 Created by KiCad (PCBNEW (6.0.7)) date 2022-07-30 13:06:33*
%MOMM*%
%LPD*%
G01*
G04 APERTURE LIST*
%ADD10C,0.150000*%
%ADD11C,0.120000*%
G04 APERTURE END LIST*
D10*
X133738095Y-137400000D02*
X133642857Y-137352380D01*
X133500000Y-137352380D01*
X133357142Y-137400000D01*
X133261904Y-137495238D01*
X133214285Y-137590476D01*
X133166666Y-137780952D01*
X133166666Y-137923809D01*
X133214285Y-138114285D01*
X133261904Y-138209523D01*
X133357142Y-138304761D01*
X133500000Y-138352380D01*
X133595238Y-138352380D01*
X133738095Y-138304761D01*
X133785714Y-138257142D01*
X133785714Y-137923809D01*
X133595238Y-137923809D01*
X134214285Y-138352380D02*
X134214285Y-137352380D01*
X134785714Y-138352380D01*
X134785714Y-137352380D01*
X135261904Y-138352380D02*
X135261904Y-137352380D01*
X135500000Y-137352380D01*
X135642857Y-137400000D01*
X135738095Y-137495238D01*
X135785714Y-137590476D01*
X135833333Y-137780952D01*
X135833333Y-137923809D01*
X135785714Y-138114285D01*
X135738095Y-138209523D01*
X135642857Y-138304761D01*
X135500000Y-138352380D01*
X135261904Y-138352380D01*
X97462380Y-119392380D02*
X97462380Y-119868571D01*
X96462380Y-119868571D01*
X96938571Y-119059047D02*
X96938571Y-118725714D01*
X97462380Y-118582857D02*
X97462380Y-119059047D01*
X96462380Y-119059047D01*
X96462380Y-118582857D01*
X96938571Y-117820952D02*
X96938571Y-118154285D01*
X97462380Y-118154285D02*
X96462380Y-118154285D01*
X96462380Y-117678095D01*
X96462380Y-117440000D02*
X96462380Y-116868571D01*
X97462380Y-117154285D02*
X96462380Y-117154285D01*
X97081428Y-116535238D02*
X97081428Y-115773333D01*
X97414761Y-115344761D02*
X97462380Y-115201904D01*
X97462380Y-114963809D01*
X97414761Y-114868571D01*
X97367142Y-114820952D01*
X97271904Y-114773333D01*
X97176666Y-114773333D01*
X97081428Y-114820952D01*
X97033809Y-114868571D01*
X96986190Y-114963809D01*
X96938571Y-115154285D01*
X96890952Y-115249523D01*
X96843333Y-115297142D01*
X96748095Y-115344761D01*
X96652857Y-115344761D01*
X96557619Y-115297142D01*
X96510000Y-115249523D01*
X96462380Y-115154285D01*
X96462380Y-114916190D01*
X96510000Y-114773333D01*
X96938571Y-114344761D02*
X96938571Y-114011428D01*
X97462380Y-113868571D02*
X97462380Y-114344761D01*
X96462380Y-114344761D01*
X96462380Y-113868571D01*
X97462380Y-112868571D02*
X96986190Y-113201904D01*
X97462380Y-113440000D02*
X96462380Y-113440000D01*
X96462380Y-113059047D01*
X96510000Y-112963809D01*
X96557619Y-112916190D01*
X96652857Y-112868571D01*
X96795714Y-112868571D01*
X96890952Y-112916190D01*
X96938571Y-112963809D01*
X96986190Y-113059047D01*
X96986190Y-113440000D01*
X96462380Y-112582857D02*
X97462380Y-112249523D01*
X96462380Y-111916190D01*
X96462380Y-111392380D02*
X96462380Y-111201904D01*
X96510000Y-111106666D01*
X96605238Y-111011428D01*
X96795714Y-110963809D01*
X97129047Y-110963809D01*
X97319523Y-111011428D01*
X97414761Y-111106666D01*
X97462380Y-111201904D01*
X97462380Y-111392380D01*
X97414761Y-111487619D01*
X97319523Y-111582857D01*
X97129047Y-111630476D01*
X96795714Y-111630476D01*
X96605238Y-111582857D01*
X96510000Y-111487619D01*
X96462380Y-111392380D01*
X152452380Y-119633333D02*
X151976190Y-119966666D01*
X152452380Y-120204761D02*
X151452380Y-120204761D01*
X151452380Y-119823809D01*
X151500000Y-119728571D01*
X151547619Y-119680952D01*
X151642857Y-119633333D01*
X151785714Y-119633333D01*
X151880952Y-119680952D01*
X151928571Y-119728571D01*
X151976190Y-119823809D01*
X151976190Y-120204761D01*
X152452380Y-119204761D02*
X151452380Y-119204761D01*
X151500000Y-118204761D02*
X151452380Y-118300000D01*
X151452380Y-118442857D01*
X151500000Y-118585714D01*
X151595238Y-118680952D01*
X151690476Y-118728571D01*
X151880952Y-118776190D01*
X152023809Y-118776190D01*
X152214285Y-118728571D01*
X152309523Y-118680952D01*
X152404761Y-118585714D01*
X152452380Y-118442857D01*
X152452380Y-118347619D01*
X152404761Y-118204761D01*
X152357142Y-118157142D01*
X152023809Y-118157142D01*
X152023809Y-118347619D01*
X152452380Y-117728571D02*
X151452380Y-117728571D01*
X151928571Y-117728571D02*
X151928571Y-117157142D01*
X152452380Y-117157142D02*
X151452380Y-117157142D01*
X151452380Y-116823809D02*
X151452380Y-116252380D01*
X152452380Y-116538095D02*
X151452380Y-116538095D01*
X152071428Y-115919047D02*
X152071428Y-115157142D01*
X152404761Y-114728571D02*
X152452380Y-114585714D01*
X152452380Y-114347619D01*
X152404761Y-114252380D01*
X152357142Y-114204761D01*
X152261904Y-114157142D01*
X152166666Y-114157142D01*
X152071428Y-114204761D01*
X152023809Y-114252380D01*
X151976190Y-114347619D01*
X151928571Y-114538095D01*
X151880952Y-114633333D01*
X151833333Y-114680952D01*
X151738095Y-114728571D01*
X151642857Y-114728571D01*
X151547619Y-114680952D01*
X151500000Y-114633333D01*
X151452380Y-114538095D01*
X151452380Y-114300000D01*
X151500000Y-114157142D01*
X151928571Y-113728571D02*
X151928571Y-113395238D01*
X152452380Y-113252380D02*
X152452380Y-113728571D01*
X151452380Y-113728571D01*
X151452380Y-113252380D01*
X152452380Y-112252380D02*
X151976190Y-112585714D01*
X152452380Y-112823809D02*
X151452380Y-112823809D01*
X151452380Y-112442857D01*
X151500000Y-112347619D01*
X151547619Y-112300000D01*
X151642857Y-112252380D01*
X151785714Y-112252380D01*
X151880952Y-112300000D01*
X151928571Y-112347619D01*
X151976190Y-112442857D01*
X151976190Y-112823809D01*
X151452380Y-111966666D02*
X152452380Y-111633333D01*
X151452380Y-111300000D01*
X151452380Y-110776190D02*
X151452380Y-110585714D01*
X151500000Y-110490476D01*
X151595238Y-110395238D01*
X151785714Y-110347619D01*
X152119047Y-110347619D01*
X152309523Y-110395238D01*
X152404761Y-110490476D01*
X152452380Y-110585714D01*
X152452380Y-110776190D01*
X152404761Y-110871428D01*
X152309523Y-110966666D01*
X152119047Y-111014285D01*
X151785714Y-111014285D01*
X151595238Y-110966666D01*
X151500000Y-110871428D01*
X151452380Y-110776190D01*
X146909523Y-137152380D02*
X146433333Y-137152380D01*
X146385714Y-137628571D01*
X146433333Y-137580952D01*
X146528571Y-137533333D01*
X146766666Y-137533333D01*
X146861904Y-137580952D01*
X146909523Y-137628571D01*
X146957142Y-137723809D01*
X146957142Y-137961904D01*
X146909523Y-138057142D01*
X146861904Y-138104761D01*
X146766666Y-138152380D01*
X146528571Y-138152380D01*
X146433333Y-138104761D01*
X146385714Y-138057142D01*
X147242857Y-137152380D02*
X147576190Y-138152380D01*
X147909523Y-137152380D01*
%TO.C,M2*%
X154440476Y-119962380D02*
X154440476Y-118962380D01*
X154773809Y-119676666D01*
X155107142Y-118962380D01*
X155107142Y-119962380D01*
X155535714Y-119057619D02*
X155583333Y-119010000D01*
X155678571Y-118962380D01*
X155916666Y-118962380D01*
X156011904Y-119010000D01*
X156059523Y-119057619D01*
X156107142Y-119152857D01*
X156107142Y-119248095D01*
X156059523Y-119390952D01*
X155488095Y-119962380D01*
X156107142Y-119962380D01*
%TO.C,J2*%
X149422380Y-115333333D02*
X150136666Y-115333333D01*
X150279523Y-115380952D01*
X150374761Y-115476190D01*
X150422380Y-115619047D01*
X150422380Y-115714285D01*
X149517619Y-114904761D02*
X149470000Y-114857142D01*
X149422380Y-114761904D01*
X149422380Y-114523809D01*
X149470000Y-114428571D01*
X149517619Y-114380952D01*
X149612857Y-114333333D01*
X149708095Y-114333333D01*
X149850952Y-114380952D01*
X150422380Y-114952380D01*
X150422380Y-114333333D01*
%TO.C,J4*%
X94866666Y-143442380D02*
X94866666Y-144156666D01*
X94819047Y-144299523D01*
X94723809Y-144394761D01*
X94580952Y-144442380D01*
X94485714Y-144442380D01*
X95771428Y-143775714D02*
X95771428Y-144442380D01*
X95533333Y-143394761D02*
X95295238Y-144109047D01*
X95914285Y-144109047D01*
%TO.C,J1*%
X94254880Y-128433333D02*
X94969166Y-128433333D01*
X95112023Y-128480952D01*
X95207261Y-128576190D01*
X95254880Y-128719047D01*
X95254880Y-128814285D01*
X95254880Y-127433333D02*
X95254880Y-128004761D01*
X95254880Y-127719047D02*
X94254880Y-127719047D01*
X94397738Y-127814285D01*
X94492976Y-127909523D01*
X94540595Y-128004761D01*
%TO.C,J5*%
X155076666Y-139632380D02*
X155076666Y-140346666D01*
X155029047Y-140489523D01*
X154933809Y-140584761D01*
X154790952Y-140632380D01*
X154695714Y-140632380D01*
X156029047Y-139632380D02*
X155552857Y-139632380D01*
X155505238Y-140108571D01*
X155552857Y-140060952D01*
X155648095Y-140013333D01*
X155886190Y-140013333D01*
X155981428Y-140060952D01*
X156029047Y-140108571D01*
X156076666Y-140203809D01*
X156076666Y-140441904D01*
X156029047Y-140537142D01*
X155981428Y-140584761D01*
X155886190Y-140632380D01*
X155648095Y-140632380D01*
X155552857Y-140584761D01*
X155505238Y-140537142D01*
%TO.C,J3*%
X149422380Y-140733333D02*
X150136666Y-140733333D01*
X150279523Y-140780952D01*
X150374761Y-140876190D01*
X150422380Y-141019047D01*
X150422380Y-141114285D01*
X149422380Y-140352380D02*
X149422380Y-139733333D01*
X149803333Y-140066666D01*
X149803333Y-139923809D01*
X149850952Y-139828571D01*
X149898571Y-139780952D01*
X149993809Y-139733333D01*
X150231904Y-139733333D01*
X150327142Y-139780952D01*
X150374761Y-139828571D01*
X150422380Y-139923809D01*
X150422380Y-140209523D01*
X150374761Y-140304761D01*
X150327142Y-140352380D01*
%TO.C,M1*%
X91910476Y-120332380D02*
X91910476Y-119332380D01*
X92243809Y-120046666D01*
X92577142Y-119332380D01*
X92577142Y-120332380D01*
X93577142Y-120332380D02*
X93005714Y-120332380D01*
X93291428Y-120332380D02*
X93291428Y-119332380D01*
X93196190Y-119475238D01*
X93100952Y-119570476D01*
X93005714Y-119618095D01*
D11*
%TO.C,M2*%
X159400000Y-112380000D02*
X165400000Y-112380000D01*
X159400000Y-112260000D02*
X165400000Y-112260000D01*
X159400000Y-114620000D02*
X165400000Y-114620000D01*
X156342929Y-114620000D02*
X156740000Y-114620000D01*
X159400000Y-118870000D02*
X159400000Y-111130000D01*
X154030000Y-111190000D02*
X155300000Y-111190000D01*
X159400000Y-112080000D02*
X165400000Y-112080000D01*
X156740000Y-113730000D02*
X159400000Y-113730000D01*
X156410000Y-112080000D02*
X156740000Y-112080000D01*
X156740000Y-111130000D02*
X156740000Y-118870000D01*
X159400000Y-111130000D02*
X156740000Y-111130000D01*
X156740000Y-116270000D02*
X159400000Y-116270000D01*
X165400000Y-112080000D02*
X165400000Y-112840000D01*
X156410000Y-112840000D02*
X156740000Y-112840000D01*
X159400000Y-112140000D02*
X165400000Y-112140000D01*
X156342929Y-117160000D02*
X156740000Y-117160000D01*
X154030000Y-112460000D02*
X154030000Y-111190000D01*
X156740000Y-118870000D02*
X159400000Y-118870000D01*
X156342929Y-117920000D02*
X156740000Y-117920000D01*
X165400000Y-117920000D02*
X159400000Y-117920000D01*
X159400000Y-112740000D02*
X165400000Y-112740000D01*
X165400000Y-117160000D02*
X165400000Y-117920000D01*
X159400000Y-112500000D02*
X165400000Y-112500000D01*
X165400000Y-112840000D02*
X159400000Y-112840000D01*
X159400000Y-117160000D02*
X165400000Y-117160000D01*
X159400000Y-112620000D02*
X165400000Y-112620000D01*
X156342929Y-115380000D02*
X156740000Y-115380000D01*
X165400000Y-114620000D02*
X165400000Y-115380000D01*
X165400000Y-115380000D02*
X159400000Y-115380000D01*
%TO.C,J2*%
X145930000Y-116330000D02*
X100150000Y-116330000D01*
X145930000Y-113670000D02*
X145930000Y-116330000D01*
X145930000Y-113670000D02*
X100150000Y-113670000D01*
X148530000Y-115000000D02*
X148530000Y-116330000D01*
X148530000Y-116330000D02*
X147200000Y-116330000D01*
X100150000Y-113670000D02*
X100150000Y-116330000D01*
%TO.C,J4*%
X88400000Y-141330000D02*
X88400000Y-146530000D01*
X93770000Y-145200000D02*
X93770000Y-146470000D01*
X82400000Y-142280000D02*
X88400000Y-142280000D01*
X88400000Y-145520000D02*
X82400000Y-145520000D01*
X88400000Y-145280000D02*
X82400000Y-145280000D01*
X91457071Y-142280000D02*
X91060000Y-142280000D01*
X88400000Y-145040000D02*
X82400000Y-145040000D01*
X88400000Y-146530000D02*
X91060000Y-146530000D01*
X91060000Y-141330000D02*
X88400000Y-141330000D01*
X82400000Y-144820000D02*
X88400000Y-144820000D01*
X88400000Y-143040000D02*
X82400000Y-143040000D01*
X88400000Y-145160000D02*
X82400000Y-145160000D01*
X88400000Y-144920000D02*
X82400000Y-144920000D01*
X82400000Y-145580000D02*
X82400000Y-144820000D01*
X91390000Y-144820000D02*
X91060000Y-144820000D01*
X91457071Y-143040000D02*
X91060000Y-143040000D01*
X91060000Y-146530000D02*
X91060000Y-141330000D01*
X82400000Y-143040000D02*
X82400000Y-142280000D01*
X93770000Y-146470000D02*
X92500000Y-146470000D01*
X91060000Y-143930000D02*
X88400000Y-143930000D01*
X88400000Y-145400000D02*
X82400000Y-145400000D01*
X91390000Y-145580000D02*
X91060000Y-145580000D01*
X88400000Y-145580000D02*
X82400000Y-145580000D01*
%TO.C,J1*%
X93452500Y-132000000D02*
X93452500Y-131550000D01*
X94002500Y-126400000D02*
X93552500Y-126400000D01*
X89052500Y-132000000D02*
X89302500Y-132000000D01*
X94002500Y-126400000D02*
X94002500Y-126850000D01*
X91602500Y-124200000D02*
X93452500Y-124200000D01*
X91602500Y-132000000D02*
X93452500Y-132000000D01*
X89052500Y-124200000D02*
X89302500Y-124200000D01*
X93452500Y-124200000D02*
X93452500Y-124650000D01*
%TO.C,J5*%
X156442929Y-144760000D02*
X156840000Y-144760000D01*
X154130000Y-141330000D02*
X155400000Y-141330000D01*
X159500000Y-142760000D02*
X165500000Y-142760000D01*
X156840000Y-146470000D02*
X159500000Y-146470000D01*
X165500000Y-142980000D02*
X159500000Y-142980000D01*
X156510000Y-142980000D02*
X156840000Y-142980000D01*
X159500000Y-142520000D02*
X165500000Y-142520000D01*
X156442929Y-145520000D02*
X156840000Y-145520000D01*
X165500000Y-145520000D02*
X159500000Y-145520000D01*
X159500000Y-142280000D02*
X165500000Y-142280000D01*
X159500000Y-142220000D02*
X165500000Y-142220000D01*
X154130000Y-142600000D02*
X154130000Y-141330000D01*
X165500000Y-144760000D02*
X165500000Y-145520000D01*
X159500000Y-142400000D02*
X165500000Y-142400000D01*
X159500000Y-146470000D02*
X159500000Y-141270000D01*
X156840000Y-143870000D02*
X159500000Y-143870000D01*
X159500000Y-142880000D02*
X165500000Y-142880000D01*
X159500000Y-141270000D02*
X156840000Y-141270000D01*
X156840000Y-141270000D02*
X156840000Y-146470000D01*
X159500000Y-142640000D02*
X165500000Y-142640000D01*
X159500000Y-144760000D02*
X165500000Y-144760000D01*
X165500000Y-142220000D02*
X165500000Y-142980000D01*
X156510000Y-142220000D02*
X156840000Y-142220000D01*
%TO.C,J3*%
X145930000Y-141730000D02*
X100150000Y-141730000D01*
X100150000Y-139070000D02*
X100150000Y-141730000D01*
X145930000Y-139070000D02*
X100150000Y-139070000D01*
X148530000Y-141730000D02*
X147200000Y-141730000D01*
X145930000Y-139070000D02*
X145930000Y-141730000D01*
X148530000Y-140400000D02*
X148530000Y-141730000D01*
%TO.C,M1*%
X88575000Y-117905000D02*
X82575000Y-117905000D01*
X88575000Y-117605000D02*
X82575000Y-117605000D01*
X91235000Y-118855000D02*
X91235000Y-111115000D01*
X82575000Y-115365000D02*
X82575000Y-114605000D01*
X88575000Y-111115000D02*
X88575000Y-118855000D01*
X82575000Y-117145000D02*
X88575000Y-117145000D01*
X82575000Y-117905000D02*
X82575000Y-117145000D01*
X93945000Y-117525000D02*
X93945000Y-118795000D01*
X91632071Y-112825000D02*
X91235000Y-112825000D01*
X93945000Y-118795000D02*
X92675000Y-118795000D01*
X91235000Y-113715000D02*
X88575000Y-113715000D01*
X88575000Y-117845000D02*
X82575000Y-117845000D01*
X91632071Y-114605000D02*
X91235000Y-114605000D01*
X91632071Y-112065000D02*
X91235000Y-112065000D01*
X88575000Y-115365000D02*
X82575000Y-115365000D01*
X91632071Y-115365000D02*
X91235000Y-115365000D01*
X91565000Y-117145000D02*
X91235000Y-117145000D01*
X91565000Y-117905000D02*
X91235000Y-117905000D01*
X82575000Y-114605000D02*
X88575000Y-114605000D01*
X88575000Y-118855000D02*
X91235000Y-118855000D01*
X88575000Y-117365000D02*
X82575000Y-117365000D01*
X91235000Y-116255000D02*
X88575000Y-116255000D01*
X88575000Y-117725000D02*
X82575000Y-117725000D01*
X88575000Y-112825000D02*
X82575000Y-112825000D01*
X82575000Y-112065000D02*
X88575000Y-112065000D01*
X82575000Y-112825000D02*
X82575000Y-112065000D01*
X88575000Y-117485000D02*
X82575000Y-117485000D01*
X88575000Y-117245000D02*
X82575000Y-117245000D01*
X91235000Y-111115000D02*
X88575000Y-111115000D01*
%TD*%
M02*
