M48
; DRILL file {KiCad (6.0.7)} date Sat Jul 30 13:25:05 2022
; FORMAT={-:-/ absolute / metric / decimal}
; #@! TF.CreationDate,2022-07-30T13:25:05+08:00
; #@! TF.GenerationSoftware,Kicad,Pcbnew,(6.0.7)
; #@! TF.FileFunction,MixedPlating,1,2
FMAT,2
METRIC
; #@! TA.AperFunction,Plated,PTH,ComponentDrill
T1C0.600
; #@! TA.AperFunction,Plated,PTH,ComponentDrill
T2C0.850
; #@! TA.AperFunction,Plated,PTH,ComponentDrill
T3C1.000
%
G90
G05
T2
X93.152Y-125.6
X93.152Y-130.6
T3
X92.5Y-142.66
X92.5Y-145.2
X92.675Y-112.445
X92.675Y-114.985
X92.675Y-117.525
X101.48Y-115.0
X101.48Y-140.4
X104.02Y-115.0
X104.02Y-140.4
X106.56Y-115.0
X106.56Y-140.4
X109.1Y-115.0
X109.1Y-140.4
X111.64Y-115.0
X111.64Y-140.4
X114.18Y-115.0
X114.18Y-140.4
X116.72Y-115.0
X116.72Y-140.4
X119.26Y-115.0
X119.26Y-140.4
X121.8Y-115.0
X121.8Y-140.4
X124.34Y-115.0
X124.34Y-140.4
X126.88Y-115.0
X126.88Y-140.4
X129.42Y-115.0
X129.42Y-140.4
X131.96Y-115.0
X131.96Y-140.4
X134.5Y-115.0
X134.5Y-140.4
X137.04Y-115.0
X137.04Y-140.4
X139.58Y-115.0
X139.58Y-140.4
X142.12Y-115.0
X142.12Y-140.4
X144.66Y-115.0
X144.66Y-140.4
X147.2Y-115.0
X147.2Y-140.4
X155.3Y-112.46
X155.3Y-115.0
X155.3Y-117.54
X155.4Y-142.6
X155.4Y-145.14
T1
G00X90.102Y-124.6
M15
G01X90.802Y-124.6
M16
G05
G00X90.802Y-131.6
M15
G01X90.102Y-131.6
M16
G05
T0
M30
